HIERARCHY
ROOT Hips
{
	OFFSET 0.000000 0.000000 0.000000
	CHANNELS 6 Xposition Yposition Zposition Yrotation Xrotation Zrotation
	JOINT Chest
	{
		OFFSET 0.000000 -0.009281 11.569106
		CHANNELS 3 Yrotation Xrotation Zrotation
		JOINT Chest2
		{
			OFFSET -0.000000 0.016865 9.269641
			CHANNELS 3 Yrotation Xrotation Zrotation
			JOINT Chest3
			{
				OFFSET -0.000000 0.000001 8.374491
				CHANNELS 3 Yrotation Xrotation Zrotation
				JOINT Chest4
				{
					OFFSET -0.000000 0.000001 8.374493
					CHANNELS 3 Yrotation Xrotation Zrotation
					JOINT Neck
					{
						OFFSET -0.000000 0.000002 12.152554
						CHANNELS 3 Yrotation Xrotation Zrotation
						JOINT Head
						{
							OFFSET -0.000000 0.040101 7.802319
							CHANNELS 3 Yrotation Xrotation Zrotation
							End Site
							{
								OFFSET -0.000000 0.020947 14.853096
							}
						}
					}
					JOINT RightCollar
					{
						OFFSET 2.894404 0.000001 6.791374
						CHANNELS 3 Yrotation Xrotation Zrotation
						JOINT RightShoulder
						{
							OFFSET 13.574684 0.000001 0.000000
							CHANNELS 3 Yrotation Xrotation Zrotation
							JOINT RightElbow
							{
								OFFSET 23.923903 0.000002 0.000000
								CHANNELS 3 Yrotation Xrotation Zrotation
								JOINT RightWrist
								{
									OFFSET 19.846718 0.012767 0.000000
									CHANNELS 3 Yrotation Xrotation Zrotation
									End Site
									{
										OFFSET 14.973145 0.000001 0.000000
									}
								}
							}
						}
					}
					JOINT LeftCollar
					{
						OFFSET -2.894404 0.000001 6.791374
						CHANNELS 3 Yrotation Xrotation Zrotation
						JOINT LeftShoulder
						{
							OFFSET -13.574684 -0.000001 0.000000
							CHANNELS 3 Yrotation Xrotation Zrotation
							JOINT LeftElbow
							{
								OFFSET -23.923903 -0.000002 0.000000
								CHANNELS 3 Yrotation Xrotation Zrotation
								JOINT LeftWrist
								{
									OFFSET -19.846718 0.012763 0.000000
									CHANNELS 3 Yrotation Xrotation Zrotation
									End Site
									{
										OFFSET -14.973145 -0.000001 0.000000
									}
								}
							}
						}
					}
				}
			}
		}
	}
	JOINT RightHip
	{
		OFFSET 9.469263 0.004643 0.045487
		CHANNELS 3 Yrotation Xrotation Zrotation
		JOINT RightKnee
		{
			OFFSET 0.000000 0.002661 -40.478676
			CHANNELS 3 Yrotation Xrotation Zrotation
			JOINT RightAnkle
			{
				OFFSET 0.000000 0.049106 -35.224068
				CHANNELS 3 Yrotation Xrotation Zrotation
				JOINT RightToe
				{
					OFFSET -0.000001 12.539529 -6.151390
					CHANNELS 3 Yrotation Xrotation Zrotation
					End Site
					{
						OFFSET -0.000001 5.044994 -1.291870
					}
				}
			}
		}
	}
	JOINT LeftHip
	{
		OFFSET -9.469263 0.004641 0.045487
		CHANNELS 3 Yrotation Xrotation Zrotation
		JOINT LeftKnee
		{
			OFFSET 0.000000 0.002661 -40.478676
			CHANNELS 3 Yrotation Xrotation Zrotation
			JOINT LeftAnkle
			{
				OFFSET 0.000000 0.049106 -35.224068
				CHANNELS 3 Yrotation Xrotation Zrotation
				JOINT LeftToe
				{
					OFFSET -0.000001 12.539529 -6.151390
					CHANNELS 3 Yrotation Xrotation Zrotation
					End Site
					{
						OFFSET -0.000001 5.044994 -1.291870
					}
				}
			}
		}
	}
}
MOTION
Frames: 11
Frame Time: 0.016667
-5.289277 18.565449 77.176315 -2.180119 0.023782 -96.307614 -1.330559 -2.873403 -0.182084 -0.581544 -1.281560 -0.088677 -0.581544 -1.281560 -0.088677 -0.436326 -0.961087 -0.067724 3.853892 -16.001858 -8.190429 4.203067 6.456268 -13.844069 8.415923 4.238510 -1.583254 47.231089 -18.433890 -12.777242 21.022849 -38.560902 45.850787 -27.657521 39.557099 67.448535 -7.686320 5.010900 -3.300411 -42.554486 -7.000361 13.937651 -40.417521 -57.576241 -20.158887 17.240816 15.363124 -58.287250 -3.726943 20.811318 -16.129338 15.060272 -40.930892 -18.907297 -5.897883 20.261027 9.588893 0.280716 0.018630 -0.000012 -16.273435 28.633048 -27.020525 7.005554 -27.009737 -7.347726 10.980950 -5.962955 5.095388 -3.891546 -1.391541 -0.090632 
-5.285539 18.545547 77.308228 -2.196135 0.003913 -96.303748 -1.303714 -2.834375 -0.158692 -0.577488 -1.266441 -0.075914 -0.577488 -1.266441 -0.075914 -0.433257 -0.949761 -0.058131 3.852973 -16.059064 -8.206055 4.200399 6.349649 -13.871639 8.404488 4.185276 -1.570240 47.213683 -18.462765 -12.742666 21.103826 -38.512435 45.785692 -27.672153 39.555640 67.423570 -7.693966 5.010021 -3.231017 -42.583487 -6.903136 13.986217 -40.368228 -57.564834 -20.170682 17.217672 15.303898 -58.203054 -3.548941 20.556913 -15.970548 14.835538 -40.382735 -18.678703 -5.995442 19.964320 9.545925 0.292654 0.016576 0.003027 -15.701758 28.243273 -26.465211 7.400647 -27.333662 -7.640520 11.305815 -5.210358 5.178845 -3.614796 -0.996460 -0.048439 
-5.285509 18.515991 77.450310 -2.179257 0.002837 -96.273490 -1.283491 -2.753105 -0.154656 -0.577171 -1.240110 -0.068215 -0.577171 -1.240110 -0.068216 -0.433000 -0.930019 -0.052331 3.856227 -16.137842 -8.216591 4.209052 6.203645 -13.887525 8.401466 4.147234 -1.556946 47.193045 -18.507057 -12.729157 21.210768 -38.471730 45.690161 -27.680713 39.551856 67.402247 -7.712241 5.038032 -3.160947 -42.584382 -6.786318 14.079850 -40.370687 -57.582777 -20.128719 17.167925 15.243572 -58.112192 -3.387875 20.302543 -15.857356 14.634787 -39.770573 -18.392598 -6.180034 19.626533 9.378500 0.321898 0.029203 0.010722 -15.095145 27.840695 -26.035624 7.641581 -27.606629 -7.687252 11.603567 -4.559959 5.282895 -3.335649 -0.597022 -0.011042 
-5.284421 18.473700 77.604759 -2.163869 0.018700 -96.224470 -1.273748 -2.669510 -0.152459 -0.581557 -1.206147 -0.066277 -0.581557 -1.206147 -0.066277 -0.436282 -0.904548 -0.050854 3.867808 -16.229119 -8.225280 4.234831 6.035251 -13.896590 8.400652 4.117361 -1.557380 47.198605 -18.540478 -12.731822 21.297066 -38.436490 45.568529 -27.670713 39.553830 67.398907 -7.738802 5.084764 -3.095502 -42.547246 -6.674354 14.190144 -40.458158 -57.624619 -20.023693 17.120817 15.194859 -58.025394 -3.225564 20.022927 -15.732335 14.428816 -39.093947 -18.073794 -6.431197 19.241621 9.131977 0.377892 0.052475 0.014897 -14.486208 27.384776 -25.707606 7.786298 -27.851066 -7.605306 11.858774 -3.935611 5.456981 -3.054476 -0.252346 0.023978 
-5.288285 18.414534 77.770859 -2.139605 0.053971 -96.165095 -1.279763 -2.582883 -0.148098 -0.587906 -1.166721 -0.067859 -0.587906 -1.166721 -0.067859 -0.441044 -0.874977 -0.052015 3.884747 -16.325175 -8.233812 4.270972 5.858454 -13.903330 8.406182 4.114442 -1.562840 47.225564 -18.559893 -12.774231 21.340332 -38.405908 45.443301 -27.642419 39.557471 67.413865 -7.779201 5.152927 -3.038989 -42.499387 -6.604792 14.311190 -40.596025 -57.659050 -19.881711 17.075147 15.168317 -57.948281 -3.035446 19.747547 -15.537186 14.177985 -38.372262 -17.715597 -6.719559 18.796170 8.939104 0.454310 0.090712 0.021871 -13.910232 26.851804 -25.421542 7.916067 -28.070858 -7.549277 12.036482 -3.269594 5.736754 -2.747168 0.017108 0.038477 
-5.295163 18.353092 77.944496 -2.110309 0.108520 -96.093098 -1.297442 -2.499312 -0.154404 -0.591496 -1.125365 -0.076778 -0.591496 -1.125366 -0.076778 -0.443750 -0.843951 -0.058670 3.895787 -16.415654 -8.238216 4.297173 5.691679 -13.904773 8.392475 4.086778 -1.550037 47.260589 -18.531031 -12.818175 21.343547 -38.392312 45.327902 -27.604949 39.551361 67.430592 -7.832644 5.215340 -2.965082 -42.471496 -6.585570 14.417356 -40.741809 -57.655867 -19.738731 17.022421 15.151439 -57.886372 -2.824666 19.499113 -15.227396 13.915516 -37.637085 -17.462794 -6.992351 18.313904 8.785633 0.534705 0.143626 0.022368 -13.397361 26.222136 -25.148997 8.051304 -28.260063 -7.562269 12.196729 -2.619268 6.095519 -2.449426 0.271344 0.045165 
-5.313523 18.296558 78.120003 -2.069277 0.167708 -96.008732 -1.319510 -2.414971 -0.165528 -0.594366 -1.087150 -0.087027 -0.594366 -1.087150 -0.087028 -0.445915 -0.815278 -0.066326 3.903924 -16.493239 -8.245290 4.316014 5.548420 -13.912654 8.377026 4.059226 -1.531623 47.285581 -18.484488 -12.858953 21.360278 -38.379745 45.208233 -27.574269 39.527893 67.435544 -7.866614 5.212428 -2.906910 -42.487441 -6.564976 14.486454 -40.824191 -57.627645 -19.649136 16.975441 15.155240 -57.845780 -2.604726 19.286742 -14.836933 13.669830 -36.903949 -17.354184 -7.231838 17.824847 8.589628 0.604448 0.196776 0.020633 -12.923410 25.543541 -24.903182 8.153791 -28.460635 -7.541341 12.353537 -2.029077 6.467407 -2.166866 0.560061 0.068311 
-5.337295 18.250467 78.295921 -2.001914 0.226146 -95.900473 -1.346264 -2.335108 -0.197786 -0.598574 -1.053808 -0.097893 -0.598574 -1.053808 -0.097892 -0.449087 -0.790262 -0.074449 3.914791 -16.545669 -8.252579 4.337797 5.451947 -13.920742 8.363597 4.049222 -1.518565 47.301054 -18.453141 -12.877211 21.415732 -38.364647 45.088517 -27.552638 39.489176 67.424936 -7.883665 5.213457 -2.876398 -42.518771 -6.552997 14.563348 -40.859121 -57.593589 -19.597684 16.937189 15.174105 -57.822223 -2.397537 19.087587 -14.497493 13.404797 -36.156204 -17.268873 -7.423780 17.344861 8.365856 0.644382 0.227349 0.013477 -12.457629 24.864855 -24.679102 8.190730 -28.661451 -7.383069 12.500185 -1.468907 6.727652 -1.891132 0.848449 0.105839 
-5.368524 18.210215 78.473694 -1.905982 0.265476 -95.789995 -1.363008 -2.251872 -0.236105 -0.602664 -1.020796 -0.108193 -0.602664 -1.020796 -0.108192 -0.452167 -0.765491 -0.082150 3.926786 -16.577544 -8.259570 4.360114 5.393639 -13.928499 8.351345 4.024593 -1.513159 47.316057 -18.451017 -12.857388 21.492724 -38.339658 44.978923 -27.535192 39.444838 67.408551 -7.889015 5.201708 -2.859294 -42.534767 -6.533326 14.628527 -40.909312 -57.566371 -19.537240 16.892062 15.202814 -57.795756 -2.214031 18.869480 -14.261326 13.144644 -35.358899 -17.122507 -7.576982 16.848796 8.283568 0.638216 0.235967 0.004109 -11.939919 24.222383 -24.406183 8.155342 -28.866466 -7.081653 12.601204 -0.906547 6.871631 -1.602480 1.111835 0.151604 
-5.392508 18.184767 78.655624 -1.806718 0.287163 -95.686429 -1.370650 -2.179318 -0.271103 -0.604858 -0.987324 -0.115921 -0.604858 -0.987324 -0.115922 -0.453820 -0.740379 -0.087916 3.937723 -16.592609 -8.267928 4.378640 5.366302 -13.939655 8.342697 3.994822 -1.504163 47.331234 -18.478783 -12.828022 21.567121 -38.315203 44.891811 -27.528263 39.412060 67.389481 -7.885626 5.167135 -2.842096 -42.535700 -6.514298 14.663547 -41.001441 -57.543114 -19.441534 16.858628 15.232683 -57.750479 -2.057015 18.599426 -14.133301 12.899952 -34.503117 -16.948682 -7.672732 16.355168 8.314954 0.581859 0.216580 -0.014301 -11.367046 23.592150 -24.016579 8.093090 -29.073168 -6.717622 12.669918 -0.356722 6.952565 -1.331843 1.363358 0.203269 
-5.401552 18.179405 78.841904 -1.715346 0.300185 -95.602752 -1.379927 -2.124877 -0.294576 -0.604323 -0.959429 -0.118168 -0.604323 -0.959429 -0.118168 -0.453417 -0.719455 -0.089573 3.944406 -16.586493 -8.276045 4.387674 5.377854 -13.952512 8.335515 3.958781 -1.492345 47.335291 -18.515898 -12.781342 21.648647 -38.301324 44.819606 -27.523391 39.397306 67.372494 -7.884758 5.154485 -2.827929 -42.525420 -6.511668 14.686105 -41.126580 -57.515111 -19.309003 16.826704 15.249145 -57.695701 -1.921143 18.280977 -14.088733 12.649308 -33.609746 -16.756664 -7.688466 15.878419 8.318965 0.483387 0.173181 -0.036418 -10.773141 22.936509 -23.475246 8.068777 -29.238667 -6.364045 12.717294 0.098012 7.103443 -1.105772 1.631298 0.254103 
